<?xml version="1.0" encoding="utf-8"?>
<svg viewBox="120.24 141.252 399 119.281" xmlns="http://www.w3.org/2000/svg">
  <g id="tight-bounds" transform="matrix(1, 0, 0, 1, 122.239998, 141.251999)">
    <svg viewBox="0 0 395.52 117.49595690489818" height="117.49595690489818" width="395.52" style="">
      <g id="textblocktransform">
        <g style="">
          <rect width="395.52" height="96.28080717329098" fill="none" stroke-width="8.962371322224001" stroke="#046380" data-fill-palette-color="none" data-stroke-palette-color="tertiary" style=""/>
          <rect width="399" height="23" y="96.281" fill="#046380" data-fill-palette-color="tertiary" style="" x="-2"/>
        </g>
        <g transform="matrix(1, 0, 0, 1, 23.461704, 23.461704)">
          <path d="M 8.108 5.735 L 8.108 47.704 L 0.04 47.704 L 0.04 0 L 14.429 0 C 17.168 0 19.657 0.333 21.898 1 C 24.147 1.658 26.081 2.623 27.699 3.894 C 29.317 5.166 30.571 6.721 31.46 8.562 C 32.349 10.411 32.794 12.532 32.794 14.923 C 32.794 17.484 32.305 19.773 31.327 21.792 C 30.349 23.81 29.059 25.517 27.459 26.913 C 25.85 28.317 24.014 29.393 21.951 30.14 C 19.888 30.887 17.781 31.26 15.63 31.26 C 15.354 31.26 15.056 31.251 14.736 31.234 C 14.425 31.207 14.052 31.162 13.616 31.1 L 14.109 25.699 C 14.429 25.735 14.732 25.761 15.016 25.779 C 15.301 25.788 15.563 25.792 15.803 25.792 C 17.101 25.792 18.293 25.575 19.377 25.139 C 20.462 24.703 21.4 24.063 22.191 23.218 C 22.983 22.374 23.6 21.338 24.045 20.111 C 24.498 18.884 24.725 17.466 24.725 15.857 C 24.725 14.079 24.463 12.549 23.938 11.269 C 23.414 9.989 22.658 8.935 21.671 8.108 C 20.684 7.282 19.493 6.681 18.097 6.308 C 16.692 5.926 15.11 5.735 13.349 5.735 L 8.108 5.735 Z M 41.422 36.208 L 41.422 13.19 L 49.304 13.19 L 49.304 34.968 C 49.304 36.079 49.455 37.084 49.757 37.982 C 50.06 38.889 50.482 39.667 51.024 40.316 C 51.567 40.965 52.216 41.467 52.971 41.823 C 53.736 42.187 54.572 42.369 55.479 42.369 C 56.261 42.369 57.03 42.236 57.786 41.969 C 58.533 41.711 59.253 41.369 59.946 40.942 C 60.64 40.525 61.302 40.04 61.933 39.489 C 62.565 38.929 63.16 38.346 63.72 37.742 L 63.72 13.19 L 71.602 13.19 L 71.602 47.704 L 65.214 47.704 L 64.041 41.876 C 63.267 42.596 62.422 43.339 61.507 44.103 C 60.6 44.877 59.635 45.579 58.613 46.21 C 57.59 46.833 56.51 47.348 55.372 47.757 C 54.234 48.157 53.047 48.357 51.811 48.357 C 50.397 48.357 49.059 48.073 47.797 47.504 C 46.543 46.944 45.441 46.144 44.49 45.103 C 43.547 44.054 42.8 42.783 42.249 41.289 C 41.698 39.795 41.422 38.102 41.422 36.208 Z M 82.471 47.704 L 82.471 13.19 L 88.859 13.19 L 89.966 23.485 C 90.269 22.916 90.58 22.334 90.9 21.738 C 91.229 21.142 91.558 20.569 91.887 20.018 C 92.207 19.458 92.509 18.951 92.794 18.497 C 93.078 18.044 93.318 17.666 93.514 17.364 C 93.967 16.688 94.483 16.052 95.061 15.457 C 95.63 14.861 96.252 14.35 96.928 13.923 C 97.604 13.496 98.333 13.158 99.115 12.91 C 99.897 12.661 100.742 12.536 101.649 12.536 C 102.28 12.536 102.911 12.612 103.543 12.763 C 104.165 12.914 104.694 13.154 105.13 13.483 L 104.289 20.751 C 103.898 20.636 103.44 20.565 102.916 20.538 C 102.4 20.502 101.933 20.485 101.515 20.485 C 100.129 20.485 98.893 20.685 97.808 21.085 C 96.723 21.485 95.741 22.04 94.861 22.752 C 93.98 23.454 93.176 24.281 92.447 25.232 C 91.727 26.192 91.029 27.224 90.353 28.326 L 90.353 47.704 L 82.471 47.704 Z M 139.417 40.609 L 139.417 44.543 C 138.457 45.219 137.426 45.797 136.323 46.277 C 135.212 46.748 134.074 47.144 132.909 47.464 C 131.736 47.775 130.566 48.002 129.402 48.144 C 128.237 48.286 127.135 48.357 126.094 48.357 C 123.685 48.357 121.444 47.988 119.373 47.25 C 117.301 46.513 115.501 45.428 113.972 43.996 C 112.442 42.565 111.242 40.8 110.371 38.702 C 109.499 36.604 109.064 34.199 109.064 31.487 C 109.064 28.597 109.553 25.984 110.531 23.645 C 111.509 21.298 112.82 19.307 114.465 17.671 C 116.101 16.026 117.999 14.759 120.16 13.87 C 122.32 12.981 124.569 12.536 126.908 12.536 C 128.864 12.536 130.682 12.856 132.362 13.496 C 134.043 14.136 135.496 15.088 136.723 16.35 C 137.95 17.613 138.91 19.186 139.604 21.071 C 140.306 22.956 140.658 25.148 140.658 27.646 C 140.658 28.251 140.631 28.895 140.577 29.58 C 140.515 30.264 140.422 30.936 140.297 31.594 L 117.239 31.594 C 117.239 33.345 117.55 34.897 118.173 36.248 C 118.786 37.591 119.657 38.711 120.786 39.609 C 121.916 40.516 123.276 41.2 124.867 41.663 C 126.45 42.134 128.197 42.369 130.108 42.369 C 130.651 42.369 131.282 42.347 132.002 42.303 C 132.731 42.258 133.509 42.169 134.336 42.036 C 135.163 41.912 136.008 41.734 136.87 41.503 C 137.741 41.271 138.59 40.974 139.417 40.609 Z M 117.239 27.739 L 133.323 27.739 C 133.323 26.157 133.123 24.77 132.722 23.579 C 132.322 22.387 131.776 21.387 131.082 20.578 C 130.389 19.778 129.579 19.178 128.655 18.778 C 127.73 18.377 126.739 18.177 125.681 18.177 C 124.481 18.177 123.374 18.413 122.36 18.884 C 121.338 19.364 120.444 20.036 119.68 20.898 C 118.924 21.751 118.328 22.765 117.892 23.939 C 117.457 25.112 117.239 26.379 117.239 27.739 Z M 159.008 47.704 L 150.94 47.704 L 150.94 0 L 179.946 0 L 178.879 5.735 L 159.008 5.735 L 159.008 20.124 L 176.599 20.124 L 175.559 25.699 L 159.008 25.699 L 159.008 47.704 Z M 187.535 47.704 L 187.535 13.19 L 193.909 13.19 L 195.016 23.485 C 195.319 22.916 195.634 22.334 195.963 21.738 C 196.292 21.142 196.617 20.569 196.937 20.018 C 197.266 19.458 197.572 18.951 197.857 18.497 C 198.132 18.044 198.368 17.666 198.564 17.364 C 199.026 16.688 199.542 16.052 200.111 15.457 C 200.689 14.861 201.315 14.35 201.991 13.923 C 202.658 13.496 203.383 13.158 204.165 12.91 C 204.947 12.661 205.796 12.536 206.712 12.536 C 207.343 12.536 207.97 12.612 208.593 12.763 C 209.224 12.914 209.757 13.154 210.193 13.483 L 209.339 20.751 C 208.957 20.636 208.504 20.565 207.979 20.538 C 207.455 20.502 206.988 20.485 206.579 20.485 C 205.192 20.485 203.956 20.685 202.871 21.085 C 201.787 21.485 200.804 22.04 199.924 22.752 C 199.044 23.454 198.239 24.281 197.51 25.232 C 196.781 26.192 196.083 27.224 195.416 28.326 L 195.416 47.704 L 187.535 47.704 Z M 235.879 42.623 C 235.319 43.103 234.638 43.672 233.838 44.33 C 233.047 44.997 232.171 45.628 231.211 46.224 C 230.242 46.819 229.188 47.322 228.05 47.731 C 226.912 48.148 225.712 48.357 224.449 48.357 C 223.169 48.357 221.982 48.122 220.889 47.651 C 219.786 47.188 218.83 46.539 218.021 45.703 C 217.203 44.868 216.563 43.868 216.101 42.703 C 215.63 41.547 215.394 40.262 215.394 38.849 C 215.394 37.373 215.692 35.928 216.288 34.514 C 216.892 33.11 217.892 31.852 219.288 30.74 C 220.693 29.638 222.542 28.744 224.836 28.06 C 227.139 27.375 229.984 27.033 233.371 27.033 L 235.745 27.033 L 235.745 24.365 C 235.745 23.405 235.585 22.547 235.265 21.792 C 234.936 21.027 234.478 20.373 233.892 19.831 C 233.305 19.289 232.607 18.875 231.798 18.591 C 230.98 18.315 230.073 18.177 229.077 18.177 C 228.295 18.177 227.459 18.266 226.57 18.444 C 225.681 18.631 224.801 18.889 223.929 19.218 C 223.058 19.538 222.213 19.92 221.395 20.365 C 220.569 20.809 219.831 21.294 219.182 21.818 L 218.595 21.498 L 217.088 16.03 C 219.719 14.661 222.164 13.736 224.423 13.256 C 226.681 12.776 228.797 12.536 230.771 12.536 C 232.807 12.536 234.625 12.745 236.225 13.163 C 237.817 13.572 239.168 14.203 240.28 15.057 C 241.382 15.919 242.222 17.008 242.8 18.324 C 243.369 19.631 243.654 21.187 243.654 22.992 L 243.654 38.942 C 243.654 39.271 243.685 39.631 243.747 40.022 C 243.8 40.413 243.907 40.782 244.067 41.129 C 244.227 41.476 244.467 41.769 244.787 42.009 C 245.098 42.249 245.516 42.369 246.041 42.369 C 246.343 42.369 246.712 42.325 247.148 42.236 C 247.583 42.147 248.015 42.005 248.441 41.809 L 248.441 45.717 C 247.277 46.517 246.112 47.157 244.947 47.637 C 243.783 48.117 242.649 48.357 241.547 48.357 C 240.675 48.357 239.924 48.193 239.293 47.864 C 238.67 47.544 238.141 47.117 237.706 46.584 C 237.27 46.05 236.906 45.441 236.612 44.757 C 236.319 44.072 236.074 43.361 235.879 42.623 Z M 235.745 38.422 L 235.745 30.874 L 233.691 30.874 C 231.433 30.874 229.615 31.029 228.237 31.34 C 226.859 31.66 225.792 32.096 225.036 32.647 C 224.281 33.198 223.774 33.839 223.516 34.568 C 223.267 35.297 223.142 36.084 223.142 36.928 C 223.142 37.817 223.276 38.6 223.543 39.275 C 223.8 39.942 224.152 40.507 224.596 40.969 C 225.041 41.423 225.565 41.769 226.17 42.009 C 226.783 42.249 227.437 42.369 228.13 42.369 C 228.655 42.369 229.197 42.307 229.757 42.183 C 230.317 42.067 230.909 41.858 231.531 41.556 C 232.153 41.245 232.811 40.84 233.505 40.342 C 234.198 39.844 234.945 39.204 235.745 38.422 Z M 255.47 47.704 L 255.47 13.19 L 261.858 13.19 L 262.965 19.084 C 263.72 18.391 264.574 17.657 265.525 16.884 C 266.468 16.119 267.477 15.417 268.553 14.777 C 269.628 14.128 270.744 13.594 271.9 13.176 C 273.065 12.749 274.234 12.536 275.407 12.536 C 276.448 12.536 277.457 12.705 278.435 13.043 C 279.413 13.381 280.311 13.843 281.129 14.43 C 281.956 15.017 282.685 15.715 283.316 16.524 C 283.947 17.342 284.436 18.24 284.783 19.218 C 285.627 18.497 286.517 17.742 287.45 16.95 C 288.384 16.159 289.384 15.439 290.451 14.79 C 291.509 14.132 292.629 13.594 293.811 13.176 C 294.994 12.749 296.261 12.536 297.612 12.536 C 299.213 12.536 300.653 12.852 301.933 13.483 C 303.214 14.114 304.307 14.977 305.214 16.07 C 306.112 17.164 306.805 18.457 307.294 19.951 C 307.783 21.436 308.028 23.045 308.028 24.779 L 308.028 47.704 L 300.12 47.704 L 300.12 25.659 C 300.12 23.472 299.564 21.743 298.453 20.471 C 297.35 19.2 295.865 18.564 293.998 18.564 C 293.216 18.564 292.469 18.68 291.758 18.911 C 291.055 19.133 290.366 19.444 289.691 19.844 C 289.024 20.253 288.353 20.738 287.677 21.298 C 287.001 21.858 286.308 22.467 285.596 23.125 C 285.641 23.383 285.663 23.641 285.663 23.899 C 285.663 24.165 285.663 24.459 285.663 24.779 L 285.663 47.704 L 277.781 47.704 L 277.781 25.659 C 277.781 24.574 277.63 23.592 277.328 22.712 C 277.017 21.832 276.59 21.085 276.048 20.471 C 275.505 19.849 274.856 19.378 274.1 19.058 C 273.336 18.729 272.5 18.564 271.593 18.564 C 270.838 18.564 270.108 18.68 269.406 18.911 C 268.713 19.133 268.037 19.444 267.379 19.844 C 266.712 20.253 266.05 20.729 265.392 21.271 C 264.725 21.814 264.045 22.409 263.351 23.058 L 263.351 47.704 L 255.47 47.704 Z M 347.317 40.609 L 347.317 44.543 C 346.365 45.219 345.334 45.797 344.223 46.277 C 343.12 46.748 341.982 47.144 340.809 47.464 C 339.635 47.775 338.47 48.002 337.314 48.144 C 336.15 48.286 335.047 48.357 334.007 48.357 C 331.598 48.357 329.357 47.988 327.286 47.25 C 325.214 46.513 323.409 45.428 321.871 43.996 C 320.342 42.565 319.146 40.8 318.284 38.702 C 317.412 36.604 316.977 34.199 316.977 31.487 C 316.977 28.597 317.466 25.984 318.444 23.645 C 319.422 21.298 320.729 19.307 322.364 17.671 C 324 16.026 325.899 14.759 328.059 13.87 C 330.22 12.981 332.473 12.536 334.821 12.536 C 336.777 12.536 338.595 12.856 340.275 13.496 C 341.956 14.136 343.409 15.088 344.636 16.35 C 345.863 17.613 346.823 19.186 347.517 21.071 C 348.21 22.956 348.557 25.148 348.557 27.646 C 348.557 28.251 348.53 28.895 348.477 29.58 C 348.424 30.264 348.33 30.936 348.197 31.594 L 325.152 31.594 C 325.152 33.345 325.459 34.897 326.072 36.248 C 326.694 37.591 327.57 38.711 328.699 39.609 C 329.828 40.516 331.184 41.2 332.767 41.663 C 334.349 42.134 336.096 42.369 338.008 42.369 C 338.55 42.369 339.186 42.347 339.915 42.303 C 340.644 42.258 341.422 42.169 342.249 42.036 C 343.067 41.912 343.911 41.734 344.783 41.503 C 345.654 41.271 346.499 40.974 347.317 40.609 Z M 325.152 27.739 L 341.235 27.739 C 341.235 26.157 341.035 24.77 340.635 23.579 C 340.235 22.387 339.684 21.387 338.982 20.578 C 338.288 19.778 337.483 19.178 336.568 18.778 C 335.643 18.377 334.647 18.177 333.58 18.177 C 332.389 18.177 331.282 18.413 330.26 18.884 C 329.237 19.364 328.348 20.036 327.592 20.898 C 326.828 21.751 326.232 22.765 325.805 23.939 C 325.37 25.112 325.152 26.379 325.152 27.739 Z" opacity="1" fill="#046380" class="undefined-text-0" data-fill-palette-color="primary" id="text-0" style=""/>
        </g>
        <g transform="matrix(1, 0, 0, 1, 39.551998, 95.280807)">
          <path d="M 25.758 17.58 C 24.769 17.58 23.83 17.269 22.942 16.645 C 22.051 16.024 21.338 15.19 20.803 14.143 C 20.268 13.097 20 11.974 20 10.776 C 20 9.473 20.256 8.304 20.768 7.269 C 21.279 6.234 21.977 5.426 22.861 4.844 C 23.745 4.262 24.728 3.972 25.81 3.972 C 26.415 3.972 27.11 4.135 27.897 4.46 C 28.681 4.786 29.23 5.158 29.544 5.577 L 29.805 4.268 L 30.102 4.268 L 30.102 8.159 L 29.736 8.159 C 29.736 7.554 29.553 6.955 29.188 6.362 C 28.82 5.769 28.316 5.28 27.677 4.896 C 27.037 4.513 26.333 4.321 25.566 4.321 C 24.775 4.321 24.071 4.6 23.455 5.158 C 22.838 5.716 22.355 6.481 22.006 7.451 C 21.657 8.423 21.483 9.508 21.483 10.706 C 21.483 11.858 21.654 12.931 21.996 13.927 C 22.34 14.92 22.865 15.719 23.57 16.324 C 24.272 16.929 25.129 17.232 26.141 17.232 C 26.886 17.232 27.566 17.016 28.183 16.586 C 28.799 16.156 29.259 15.597 29.561 14.911 C 29.596 14.83 29.666 14.591 29.77 14.196 C 29.852 13.847 29.937 13.553 30.025 13.313 C 30.111 13.076 30.23 12.864 30.381 12.678 L 30.625 12.678 C 30.439 12.841 30.309 13.143 30.235 13.585 C 30.158 14.027 30.119 14.638 30.119 15.417 C 30.119 15.696 29.896 16.007 29.449 16.349 C 29 16.693 28.436 16.984 27.757 17.221 C 27.075 17.461 26.409 17.58 25.758 17.58 Z M 31.323 16.97 C 31.521 17.028 31.666 17.057 31.759 17.057 C 31.969 17.057 32.103 16.984 32.161 16.837 C 32.219 16.693 32.248 16.475 32.248 16.185 L 32.248 4.233 C 32.132 4.268 31.998 4.286 31.847 4.286 C 31.684 4.286 31.509 4.268 31.323 4.233 L 31.323 3.762 L 31.48 3.762 C 31.48 3.832 31.541 3.9 31.662 3.965 C 31.785 4.028 31.905 4.059 32.021 4.059 C 32.289 4.059 32.521 3.986 32.719 3.839 C 32.917 3.695 33.016 3.506 33.016 3.274 L 33.347 3.274 L 33.33 16.185 C 33.33 16.487 33.355 16.708 33.406 16.848 C 33.46 16.987 33.58 17.057 33.766 17.057 C 33.859 17.057 34.004 17.028 34.202 16.97 L 34.202 17.232 L 31.323 17.232 L 31.323 16.97 Z M 38.546 17.406 C 37.441 17.406 36.616 17.036 36.069 16.296 C 35.522 15.559 35.249 14.481 35.249 13.062 C 35.249 12.317 35.365 11.616 35.598 10.958 C 35.83 10.302 36.193 9.766 36.686 9.352 C 37.182 8.941 37.79 8.735 38.511 8.735 C 39.686 8.735 40.524 9.092 41.024 9.806 C 41.524 10.523 41.774 11.381 41.774 12.381 C 41.774 12.556 41.762 12.783 41.739 13.062 L 41.722 13.219 L 36.47 13.219 C 36.517 15.824 37.244 17.127 38.651 17.127 C 39.279 17.127 39.744 16.935 40.047 16.551 C 40.349 16.167 40.5 15.731 40.5 15.243 C 40.5 15.045 40.45 14.899 40.35 14.806 C 40.253 14.713 40.128 14.667 39.977 14.667 C 39.861 14.667 39.758 14.698 39.67 14.761 C 39.584 14.826 39.541 14.905 39.541 14.998 L 39.384 14.998 L 39.384 14.527 L 41.6 14.527 C 41.635 14.969 41.526 15.411 41.275 15.853 C 41.026 16.295 40.663 16.662 40.186 16.952 C 39.71 17.243 39.163 17.394 38.546 17.406 Z M 40.099 12.957 C 40.309 12.957 40.433 12.936 40.473 12.894 C 40.514 12.855 40.541 12.753 40.553 12.591 C 40.564 12.463 40.57 12.271 40.57 12.015 C 40.57 11.131 40.407 10.398 40.082 9.816 C 39.756 9.235 39.209 8.944 38.442 8.944 C 37.697 8.944 37.185 9.311 36.906 10.043 C 36.627 10.776 36.482 11.747 36.47 12.957 L 40.099 12.957 Z M 45.382 17.406 C 44.731 17.406 44.184 17.205 43.742 16.802 C 43.3 16.402 43.079 15.83 43.079 15.086 C 43.079 14.55 43.259 14.093 43.62 13.714 C 43.981 13.337 44.376 13.079 44.806 12.94 C 45.027 12.87 45.287 12.802 45.585 12.737 C 45.88 12.674 46.08 12.631 46.185 12.608 C 46.766 12.492 47.203 12.384 47.493 12.284 C 47.784 12.186 47.959 12.05 48.017 11.875 C 48.017 11.038 47.857 10.34 47.539 9.782 C 47.218 9.223 46.685 8.944 45.94 8.944 C 45.475 8.944 45.13 9.109 44.904 9.44 C 44.676 9.772 44.562 10.218 44.562 10.776 C 44.562 10.927 44.591 11.035 44.649 11.101 C 44.708 11.163 44.841 11.195 45.051 11.195 C 45.179 11.195 45.289 11.166 45.382 11.108 C 45.475 11.049 45.522 10.98 45.522 10.898 L 45.679 10.898 L 45.679 11.369 L 43.393 11.369 C 43.393 10.951 43.515 10.534 43.76 10.12 C 44.004 9.708 44.341 9.371 44.772 9.108 C 45.202 8.848 45.679 8.717 46.202 8.717 C 46.9 8.717 47.462 8.877 47.888 9.195 C 48.311 9.516 48.613 9.9 48.795 10.347 C 48.974 10.796 49.064 11.241 49.064 11.683 L 49.064 15.469 C 49.064 16.342 49.25 16.778 49.622 16.778 C 49.738 16.778 49.846 16.699 49.946 16.541 C 50.044 16.385 50.093 16.225 50.093 16.063 L 50.267 16.063 C 50.267 16.493 50.137 16.824 49.877 17.057 C 49.614 17.29 49.314 17.406 48.976 17.406 C 48.581 17.406 48.323 17.232 48.202 16.883 C 48.078 16.534 48.017 16.045 48.017 15.417 L 48.017 14.614 C 48.017 14.777 47.939 15.086 47.783 15.539 C 47.625 15.993 47.348 16.417 46.952 16.813 C 46.557 17.208 46.034 17.406 45.382 17.406 Z M 45.783 16.917 C 46.179 16.917 46.545 16.76 46.883 16.446 C 47.22 16.132 47.487 15.76 47.685 15.33 C 47.883 14.899 47.982 14.539 47.982 14.248 L 47.982 12.259 C 47.982 12.294 47.924 12.329 47.807 12.364 C 47.691 12.399 47.546 12.434 47.371 12.468 C 46.615 12.666 46.063 12.829 45.714 12.957 C 45.167 13.155 44.766 13.43 44.51 13.784 C 44.254 14.14 44.126 14.539 44.126 14.981 C 44.126 15.493 44.269 15.943 44.555 16.331 C 44.839 16.722 45.248 16.917 45.783 16.917 Z M 58.258 16.185 C 58.258 16.475 58.287 16.693 58.345 16.837 C 58.404 16.984 58.537 17.057 58.747 17.057 C 58.84 17.057 58.985 17.028 59.183 16.97 L 59.183 17.232 L 56.217 17.232 L 56.217 16.97 C 56.415 17.028 56.56 17.057 56.653 17.057 C 56.839 17.057 56.959 16.987 57.012 16.848 C 57.064 16.708 57.089 16.487 57.089 16.185 L 57.089 11.509 C 57.089 10.706 56.924 10.078 56.594 9.625 C 56.261 9.171 55.827 8.944 55.292 8.944 C 54.78 8.944 54.371 9.144 54.064 9.544 C 53.755 9.947 53.539 10.421 53.418 10.968 C 53.295 11.515 53.233 12.038 53.233 12.538 L 53.233 16.185 C 53.233 16.487 53.26 16.708 53.314 16.848 C 53.365 16.987 53.483 17.057 53.67 17.057 C 53.763 17.057 53.908 17.028 54.106 16.97 L 54.106 17.232 L 51.14 17.232 L 51.14 16.97 C 51.337 17.028 51.483 17.057 51.576 17.057 C 51.785 17.057 51.919 16.984 51.977 16.837 C 52.035 16.693 52.064 16.475 52.064 16.185 L 52.064 9.991 C 51.89 10.049 51.704 10.078 51.506 10.078 C 51.425 10.078 51.303 10.067 51.14 10.043 L 51.14 9.572 L 51.297 9.572 C 51.297 9.654 51.341 9.723 51.429 9.782 C 51.515 9.84 51.617 9.869 51.733 9.869 C 51.896 9.869 52.041 9.805 52.169 9.677 C 52.297 9.549 52.454 9.351 52.64 9.084 L 52.954 9.084 L 52.972 10.497 L 53.216 10.497 C 53.425 9.974 53.714 9.545 54.081 9.213 C 54.447 8.882 54.903 8.717 55.449 8.717 C 55.891 8.717 56.331 8.83 56.768 9.056 C 57.203 9.284 57.56 9.609 57.839 10.033 C 58.119 10.459 58.258 10.951 58.258 11.509 L 58.258 16.185 Z M 67.941 17.406 C 67.081 17.406 66.373 17.202 65.82 16.795 C 65.268 16.388 64.867 15.856 64.616 15.197 C 64.367 14.541 64.243 13.829 64.243 13.062 C 64.243 12.317 64.371 11.616 64.626 10.958 C 64.882 10.302 65.268 9.766 65.785 9.352 C 66.304 8.941 66.924 8.735 67.645 8.735 C 68.308 8.735 68.927 8.886 69.501 9.188 C 70.078 9.491 70.407 9.875 70.489 10.34 C 70.512 10.503 70.524 10.613 70.524 10.671 C 70.524 10.927 70.46 11.133 70.332 11.289 C 70.204 11.447 70.023 11.526 69.791 11.526 C 69.384 11.526 69.18 11.398 69.18 11.142 C 69.18 11.038 69.209 10.887 69.267 10.689 C 69.337 10.456 69.372 10.264 69.372 10.113 C 69.372 9.88 69.285 9.673 69.11 9.492 C 68.936 9.313 68.727 9.177 68.482 9.084 C 68.238 8.991 68.017 8.944 67.819 8.944 C 67.086 8.944 66.511 9.307 66.092 10.033 C 65.673 10.761 65.464 11.823 65.464 13.219 C 65.464 14.347 65.67 15.272 66.082 15.993 C 66.496 16.714 67.133 17.075 67.994 17.075 C 68.587 17.075 69.075 16.894 69.459 16.534 C 69.843 16.173 70.099 15.731 70.227 15.208 L 70.611 15.208 C 70.448 15.813 70.122 16.33 69.634 16.76 C 69.145 17.191 68.581 17.406 67.941 17.406 Z M 75.301 17.406 C 74.068 17.406 73.181 17.013 72.642 16.227 C 72.1 15.443 71.829 14.388 71.829 13.062 C 71.829 11.84 72.102 10.813 72.649 9.98 C 73.195 9.15 74.079 8.735 75.301 8.735 C 76.522 8.735 77.409 9.15 77.963 9.98 C 78.514 10.813 78.79 11.84 78.79 13.062 C 78.79 14.388 78.517 15.443 77.97 16.227 C 77.423 17.013 76.534 17.406 75.301 17.406 Z M 75.301 17.197 C 76.092 17.197 76.667 16.815 77.028 16.052 C 77.388 15.291 77.569 14.295 77.569 13.062 C 77.569 11.91 77.383 10.935 77.01 10.138 C 76.638 9.342 76.068 8.944 75.301 8.944 C 74.533 8.944 73.967 9.342 73.601 10.138 C 73.234 10.935 73.05 11.91 73.05 13.062 C 73.05 14.295 73.23 15.291 73.591 16.052 C 73.951 16.815 74.521 17.197 75.301 17.197 Z M 83.414 17.406 C 82.332 17.406 81.553 16.966 81.076 16.087 C 80.599 15.21 80.36 14.091 80.36 12.73 C 80.36 12.009 80.477 11.346 80.709 10.741 C 80.942 10.136 81.289 9.65 81.749 9.283 C 82.207 8.917 82.768 8.735 83.431 8.735 C 83.989 8.735 84.472 8.898 84.879 9.223 C 85.286 9.549 85.612 9.974 85.856 10.497 L 86.135 10.497 L 86.153 5.943 L 86.153 4.181 C 85.978 4.239 85.792 4.268 85.594 4.268 C 85.513 4.268 85.391 4.257 85.228 4.233 L 85.228 3.762 L 85.385 3.762 C 85.385 3.844 85.429 3.914 85.518 3.972 C 85.604 4.03 85.705 4.059 85.821 4.059 C 85.996 4.059 86.174 3.98 86.355 3.822 C 86.534 3.666 86.699 3.483 86.851 3.274 L 87.095 3.274 L 87.095 16.551 C 87.118 16.888 87.252 17.057 87.496 17.057 C 87.636 17.057 87.787 17.028 87.95 16.97 L 87.95 17.232 L 86.467 17.232 L 86.066 15.958 L 85.752 15.958 C 85.275 16.923 84.495 17.406 83.414 17.406 Z M 83.728 17.092 C 84.565 17.092 85.141 16.71 85.455 15.947 C 85.769 15.187 85.926 14.207 85.926 13.009 C 85.926 12.451 85.848 11.858 85.692 11.23 C 85.534 10.602 85.286 10.063 84.949 9.614 C 84.612 9.167 84.193 8.944 83.693 8.944 C 82.972 8.944 82.44 9.334 82.098 10.113 C 81.754 10.892 81.582 11.852 81.582 12.992 C 81.582 14.155 81.75 15.129 82.088 15.913 C 82.425 16.699 82.972 17.092 83.728 17.092 Z M 92.469 17.406 C 91.364 17.406 90.538 17.036 89.991 16.296 C 89.444 15.559 89.171 14.481 89.171 13.062 C 89.171 12.317 89.287 11.616 89.52 10.958 C 89.753 10.302 90.116 9.766 90.609 9.352 C 91.104 8.941 91.713 8.735 92.434 8.735 C 93.609 8.735 94.446 9.092 94.946 9.806 C 95.446 10.523 95.696 11.381 95.696 12.381 C 95.696 12.556 95.685 12.783 95.662 13.062 L 95.644 13.219 L 90.392 13.219 C 90.439 15.824 91.166 17.127 92.573 17.127 C 93.201 17.127 93.667 16.935 93.969 16.551 C 94.272 16.167 94.423 15.731 94.423 15.243 C 94.423 15.045 94.373 14.899 94.273 14.806 C 94.175 14.713 94.051 14.667 93.899 14.667 C 93.783 14.667 93.681 14.698 93.592 14.761 C 93.506 14.826 93.463 14.905 93.463 14.998 L 93.306 14.998 L 93.306 14.527 L 95.522 14.527 C 95.557 14.969 95.449 15.411 95.197 15.853 C 94.949 16.295 94.586 16.662 94.109 16.952 C 93.632 17.243 93.085 17.394 92.469 17.406 Z M 94.021 12.957 C 94.231 12.957 94.355 12.936 94.395 12.894 C 94.437 12.855 94.463 12.753 94.475 12.591 C 94.487 12.463 94.493 12.271 94.493 12.015 C 94.493 11.131 94.33 10.398 94.004 9.816 C 93.678 9.235 93.132 8.944 92.364 8.944 C 91.62 8.944 91.108 9.311 90.829 10.043 C 90.549 10.776 90.404 11.747 90.392 12.957 L 94.021 12.957 Z M 97.965 18.906 C 98.023 18.906 98.139 18.805 98.313 18.603 C 98.488 18.398 98.647 18.168 98.792 17.912 C 98.938 17.656 99.011 17.429 99.011 17.232 C 99.011 17.173 99 17.109 98.976 17.04 C 98.953 17.121 98.897 17.194 98.809 17.259 C 98.723 17.322 98.598 17.354 98.436 17.354 C 98.191 17.354 98.008 17.286 97.884 17.151 C 97.763 17.019 97.703 16.854 97.703 16.656 C 97.703 16.423 97.792 16.214 97.972 16.028 C 98.153 15.842 98.395 15.749 98.697 15.749 C 98.965 15.749 99.182 15.824 99.35 15.975 C 99.52 16.127 99.622 16.307 99.657 16.516 C 99.669 16.574 99.674 16.667 99.674 16.795 C 99.674 17.237 99.529 17.66 99.238 18.062 C 98.947 18.462 98.558 18.779 98.069 19.011 L 97.965 18.906 Z M 105.708 16.97 C 105.905 17.028 106.051 17.057 106.144 17.057 C 106.353 17.057 106.487 16.984 106.545 16.837 C 106.603 16.693 106.632 16.475 106.632 16.185 L 106.632 9.328 L 105.428 9.328 L 105.428 9.066 L 106.632 9.066 L 106.632 6.013 C 106.632 5.327 106.749 4.774 106.981 4.356 C 107.214 3.937 107.487 3.64 107.801 3.466 C 108.115 3.291 108.418 3.204 108.709 3.204 C 109.244 3.204 109.662 3.334 109.965 3.595 C 110.267 3.858 110.418 4.239 110.418 4.739 C 110.418 4.879 110.372 5.146 110.279 5.542 C 110.267 5.588 110.238 5.713 110.192 5.915 C 110.145 6.12 110.122 6.304 110.122 6.467 C 110.122 6.885 110.325 7.095 110.732 7.095 L 110.732 7.269 C 110.302 7.269 109.947 7.091 109.668 6.735 C 109.389 6.382 109.249 5.949 109.249 5.437 C 109.249 5.274 109.267 5.1 109.302 4.914 C 109.337 4.495 109.354 4.268 109.354 4.233 C 109.354 3.966 109.299 3.753 109.19 3.595 C 109.078 3.439 108.877 3.361 108.586 3.361 C 108.296 3.361 108.078 3.544 107.934 3.909 C 107.787 4.276 107.714 4.978 107.714 6.013 L 107.714 9.066 L 109.092 9.066 L 109.092 9.328 L 107.714 9.328 L 107.714 16.185 C 107.714 16.487 107.741 16.708 107.794 16.848 C 107.845 16.987 107.964 17.057 108.15 17.057 C 108.243 17.057 108.389 17.028 108.586 16.97 L 108.586 17.232 L 105.708 17.232 L 105.708 16.97 Z M 112.338 17.406 C 111.686 17.406 111.14 17.205 110.698 16.802 C 110.256 16.402 110.035 15.83 110.035 15.086 C 110.035 14.55 110.215 14.093 110.575 13.714 C 110.936 13.337 111.331 13.079 111.762 12.94 C 111.983 12.87 112.241 12.802 112.536 12.737 C 112.834 12.674 113.035 12.631 113.14 12.608 C 113.722 12.492 114.158 12.384 114.449 12.284 C 114.739 12.186 114.914 12.05 114.972 11.875 C 114.972 11.038 114.812 10.34 114.491 9.782 C 114.172 9.223 113.64 8.944 112.896 8.944 C 112.431 8.944 112.084 9.109 111.856 9.44 C 111.63 9.772 111.518 10.218 111.518 10.776 C 111.518 10.927 111.547 11.035 111.605 11.101 C 111.663 11.163 111.797 11.195 112.006 11.195 C 112.134 11.195 112.244 11.166 112.338 11.108 C 112.431 11.049 112.477 10.98 112.477 10.898 L 112.634 10.898 L 112.634 11.369 L 110.349 11.369 C 110.349 10.951 110.471 10.534 110.715 10.12 C 110.959 9.708 111.297 9.371 111.727 9.108 C 112.157 8.848 112.634 8.717 113.158 8.717 C 113.855 8.717 114.416 8.877 114.839 9.195 C 115.265 9.516 115.568 9.9 115.747 10.347 C 115.928 10.796 116.019 11.241 116.019 11.683 L 116.019 15.469 C 116.019 16.342 116.205 16.778 116.577 16.778 C 116.694 16.778 116.801 16.699 116.898 16.541 C 116.998 16.385 117.048 16.225 117.048 16.063 L 117.223 16.063 C 117.223 16.493 117.091 16.824 116.828 17.057 C 116.568 17.29 116.269 17.406 115.932 17.406 C 115.536 17.406 115.277 17.232 115.154 16.883 C 115.033 16.534 114.972 16.045 114.972 15.417 L 114.972 14.614 C 114.972 14.777 114.893 15.086 114.735 15.539 C 114.579 15.993 114.303 16.417 113.908 16.813 C 113.512 17.208 112.989 17.406 112.338 17.406 Z M 112.739 16.917 C 113.134 16.917 113.501 16.76 113.838 16.446 C 114.175 16.132 114.443 15.76 114.641 15.33 C 114.838 14.899 114.937 14.539 114.937 14.248 L 114.937 12.259 C 114.937 12.294 114.879 12.329 114.763 12.364 C 114.646 12.399 114.501 12.434 114.327 12.468 C 113.57 12.666 113.018 12.829 112.669 12.957 C 112.122 13.155 111.721 13.43 111.465 13.784 C 111.209 14.14 111.081 14.539 111.081 14.981 C 111.081 15.493 111.223 15.943 111.507 16.331 C 111.793 16.722 112.204 16.917 112.739 16.917 Z M 120.887 17.406 C 119.921 17.406 119.183 17.034 118.671 16.289 L 118.514 17.232 L 118.287 17.232 L 118.287 14.108 L 118.601 14.108 C 118.601 15.109 118.764 15.85 119.09 16.331 C 119.415 16.815 119.91 17.057 120.573 17.057 C 121.119 17.057 121.526 16.867 121.794 16.488 C 122.061 16.111 122.195 15.626 122.195 15.033 C 122.195 14.556 122.029 14.178 121.696 13.899 C 121.366 13.62 120.881 13.329 120.241 13.027 C 119.799 12.817 119.45 12.631 119.194 12.468 C 118.938 12.306 118.72 12.102 118.538 11.858 C 118.359 11.614 118.27 11.317 118.27 10.968 C 118.27 10.258 118.493 9.708 118.94 9.317 C 119.389 8.929 119.956 8.735 120.642 8.735 C 121.05 8.735 121.436 8.83 121.801 9.021 C 122.168 9.214 122.381 9.415 122.439 9.625 L 122.562 8.735 L 122.788 8.735 L 122.788 11.02 L 122.527 11.02 C 122.527 10.509 122.37 10.049 122.056 9.642 C 121.742 9.235 121.329 9.031 120.817 9.031 C 119.875 9.031 119.404 9.549 119.404 10.584 C 119.404 10.945 119.537 11.236 119.805 11.457 C 120.072 11.678 120.497 11.939 121.079 12.242 C 121.567 12.498 121.963 12.727 122.265 12.929 C 122.567 13.134 122.826 13.399 123.04 13.725 C 123.256 14.05 123.364 14.446 123.364 14.911 C 123.364 15.307 123.259 15.696 123.05 16.08 C 122.841 16.464 122.546 16.78 122.167 17.029 C 121.79 17.28 121.364 17.406 120.887 17.406 Z M 126.396 17.406 C 125.966 17.406 125.69 17.24 125.57 16.907 C 125.446 16.577 125.385 16.092 125.385 15.452 L 125.385 14.614 L 125.385 9.328 L 124.233 9.328 L 124.233 9.066 L 125.385 9.066 L 125.385 7.199 C 125.629 7.199 125.813 7.118 125.936 6.955 C 126.057 6.792 126.117 6.624 126.117 6.449 L 126.484 6.449 L 126.466 9.066 L 127.897 9.066 L 127.897 9.328 L 126.466 9.328 L 126.449 15.469 C 126.449 15.935 126.493 16.268 126.581 16.471 C 126.668 16.676 126.809 16.778 127.007 16.778 C 127.24 16.778 127.432 16.673 127.583 16.464 C 127.734 16.254 127.848 16.018 127.925 15.756 C 127.999 15.495 128.037 15.289 128.037 15.138 L 128.211 15.138 C 128.211 15.464 128.135 15.803 127.984 16.157 C 127.833 16.513 127.621 16.809 127.349 17.047 C 127.075 17.286 126.757 17.406 126.396 17.406 Z M 137.598 10.2 C 137.598 10.34 137.574 10.497 137.528 10.671 C 137.481 10.846 137.452 10.951 137.441 10.985 C 137.348 11.288 137.301 11.491 137.301 11.596 C 137.301 11.829 137.47 11.945 137.807 11.945 L 137.807 12.12 C 137.33 12.12 136.989 11.997 136.785 11.753 C 136.582 11.509 136.481 11.195 136.481 10.811 C 136.481 10.625 136.498 10.445 136.533 10.27 C 136.603 9.933 136.638 9.671 136.638 9.485 C 136.638 9.287 136.6 9.15 136.523 9.073 C 136.448 8.999 136.33 8.962 136.167 8.962 C 135.83 8.962 135.568 9.319 135.382 10.033 C 135.196 10.749 135.103 11.584 135.103 12.538 L 135.103 16.185 C 135.103 16.487 135.128 16.708 135.179 16.848 C 135.233 16.987 135.353 17.057 135.539 17.057 C 135.632 17.057 135.777 17.028 135.975 16.97 L 135.975 17.232 L 133.096 17.232 L 133.096 16.97 C 133.294 17.028 133.439 17.057 133.532 17.057 C 133.742 17.057 133.876 16.984 133.934 16.837 C 133.992 16.693 134.021 16.475 134.021 16.185 L 134.021 9.974 C 133.846 10.032 133.66 10.061 133.463 10.061 C 133.381 10.061 133.259 10.049 133.096 10.026 L 133.096 9.555 L 133.253 9.555 C 133.253 9.636 133.296 9.706 133.382 9.764 C 133.471 9.822 133.573 9.851 133.689 9.851 C 133.864 9.851 134.015 9.787 134.143 9.659 C 134.271 9.532 134.422 9.34 134.597 9.084 L 134.771 9.084 L 134.789 10.497 L 134.963 10.497 C 135.103 9.892 135.297 9.447 135.546 9.16 C 135.797 8.877 136.062 8.735 136.341 8.735 C 136.749 8.735 137.059 8.886 137.273 9.188 C 137.489 9.491 137.598 9.828 137.598 10.2 Z M 141.977 17.406 C 140.872 17.406 140.046 17.036 139.499 16.296 C 138.953 15.559 138.679 14.481 138.679 13.062 C 138.679 12.317 138.796 11.616 139.028 10.958 C 139.261 10.302 139.624 9.766 140.117 9.352 C 140.612 8.941 141.221 8.735 141.942 8.735 C 143.117 8.735 143.954 9.092 144.454 9.806 C 144.955 10.523 145.205 11.381 145.205 12.381 C 145.205 12.556 145.193 12.783 145.17 13.062 L 145.152 13.219 L 139.901 13.219 C 139.947 15.824 140.674 17.127 142.082 17.127 C 142.71 17.127 143.175 16.935 143.477 16.551 C 143.78 16.167 143.931 15.731 143.931 15.243 C 143.931 15.045 143.881 14.899 143.781 14.806 C 143.683 14.713 143.559 14.667 143.408 14.667 C 143.291 14.667 143.189 14.698 143.1 14.761 C 143.014 14.826 142.971 14.905 142.971 14.998 L 142.814 14.998 L 142.814 14.527 L 145.03 14.527 C 145.065 14.969 144.957 15.411 144.706 15.853 C 144.457 16.295 144.094 16.662 143.617 16.952 C 143.14 17.243 142.593 17.394 141.977 17.406 Z M 143.53 12.957 C 143.739 12.957 143.863 12.936 143.903 12.894 C 143.945 12.855 143.972 12.753 143.983 12.591 C 143.995 12.463 144.001 12.271 144.001 12.015 C 144.001 11.131 143.838 10.398 143.512 9.816 C 143.187 9.235 142.64 8.944 141.872 8.944 C 141.128 8.944 140.616 9.311 140.337 10.043 C 140.058 10.776 139.912 11.747 139.901 12.957 L 143.53 12.957 Z M 149.127 17.406 C 148.161 17.406 147.423 17.034 146.911 16.289 L 146.754 17.232 L 146.527 17.232 L 146.527 14.108 L 146.841 14.108 C 146.841 15.109 147.004 15.85 147.33 16.331 C 147.655 16.815 148.15 17.057 148.813 17.057 C 149.359 17.057 149.766 16.867 150.034 16.488 C 150.301 16.111 150.435 15.626 150.435 15.033 C 150.435 14.556 150.27 14.178 149.94 13.899 C 149.607 13.62 149.121 13.329 148.481 13.027 C 148.039 12.817 147.69 12.631 147.434 12.468 C 147.178 12.306 146.961 12.102 146.782 11.858 C 146.6 11.614 146.51 11.317 146.51 10.968 C 146.51 10.258 146.734 9.708 147.183 9.317 C 147.63 8.929 148.196 8.735 148.882 8.735 C 149.29 8.735 149.677 8.83 150.044 9.021 C 150.41 9.214 150.621 9.415 150.68 9.625 L 150.802 8.735 L 151.028 8.735 L 151.028 11.02 L 150.767 11.02 C 150.767 10.509 150.61 10.049 150.296 9.642 C 149.982 9.235 149.569 9.031 149.057 9.031 C 148.115 9.031 147.644 9.549 147.644 10.584 C 147.644 10.945 147.777 11.236 148.045 11.457 C 148.313 11.678 148.737 11.939 149.319 12.242 C 149.807 12.498 150.203 12.727 150.505 12.929 C 150.807 13.134 151.067 13.399 151.283 13.725 C 151.497 14.05 151.604 14.446 151.604 14.911 C 151.604 15.307 151.5 15.696 151.29 16.08 C 151.081 16.464 150.788 16.78 150.411 17.029 C 150.032 17.28 149.604 17.406 149.127 17.406 Z M 155.722 17.406 C 155.291 17.406 154.89 17.292 154.518 17.064 C 154.146 16.838 153.853 16.516 153.639 16.097 C 153.422 15.679 153.314 15.184 153.314 14.614 L 153.297 9.886 L 153.035 9.904 C 152.965 9.904 152.837 9.892 152.651 9.869 L 152.651 9.398 L 152.808 9.398 C 152.808 9.479 152.852 9.549 152.941 9.607 C 153.027 9.665 153.128 9.694 153.244 9.694 C 153.407 9.694 153.552 9.63 153.68 9.502 C 153.808 9.374 153.965 9.177 154.152 8.909 L 154.466 8.909 L 154.466 9.049 L 154.448 14.824 C 154.448 15.661 154.559 16.263 154.78 16.628 C 155.001 16.995 155.367 17.179 155.879 17.179 C 156.402 17.179 156.85 17.007 157.222 16.663 C 157.594 16.321 157.871 15.888 158.053 15.365 C 158.232 14.841 158.321 14.306 158.321 13.76 L 158.321 9.886 L 158.06 9.904 C 157.99 9.904 157.862 9.892 157.676 9.869 L 157.676 9.398 L 157.833 9.398 C 157.833 9.479 157.877 9.549 157.965 9.607 C 158.052 9.665 158.153 9.694 158.269 9.694 C 158.432 9.694 158.577 9.63 158.705 9.502 C 158.833 9.374 158.99 9.177 159.176 8.909 L 159.49 8.909 L 159.49 16.185 C 159.49 16.487 159.517 16.708 159.571 16.848 C 159.622 16.987 159.74 17.057 159.927 17.057 C 160.02 17.057 160.165 17.028 160.363 16.97 L 160.363 17.232 L 158.461 17.232 L 158.461 15.504 L 158.286 15.504 C 158.019 16.051 157.67 16.505 157.24 16.865 C 156.809 17.226 156.303 17.406 155.722 17.406 Z M 161.061 16.97 C 161.258 17.028 161.404 17.057 161.497 17.057 C 161.706 17.057 161.84 16.984 161.898 16.837 C 161.956 16.693 161.985 16.475 161.985 16.185 L 161.985 4.233 C 161.869 4.268 161.735 4.286 161.584 4.286 C 161.421 4.286 161.247 4.268 161.061 4.233 L 161.061 3.762 L 161.218 3.762 C 161.218 3.832 161.278 3.9 161.399 3.965 C 161.522 4.028 161.642 4.059 161.758 4.059 C 162.026 4.059 162.259 3.986 162.456 3.839 C 162.654 3.695 162.753 3.506 162.753 3.274 L 163.084 3.274 L 163.067 16.185 C 163.067 16.487 163.093 16.708 163.144 16.848 C 163.197 16.987 163.317 17.057 163.503 17.057 C 163.596 17.057 163.742 17.028 163.939 16.97 L 163.939 17.232 L 161.061 17.232 L 161.061 16.97 Z M 166.626 17.406 C 166.196 17.406 165.919 17.24 165.796 16.907 C 165.675 16.577 165.614 16.092 165.614 15.452 L 165.614 14.614 L 165.614 9.328 L 164.463 9.328 L 164.463 9.066 L 165.614 9.066 L 165.614 7.199 C 165.859 7.199 166.041 7.118 166.162 6.955 C 166.285 6.792 166.347 6.624 166.347 6.449 L 166.713 6.449 L 166.696 9.066 L 168.127 9.066 L 168.127 9.328 L 166.696 9.328 L 166.679 15.469 C 166.679 15.935 166.722 16.268 166.808 16.471 C 166.896 16.676 167.039 16.778 167.237 16.778 C 167.47 16.778 167.661 16.673 167.813 16.464 C 167.964 16.254 168.077 16.018 168.151 15.756 C 168.228 15.495 168.266 15.289 168.266 15.138 L 168.441 15.138 C 168.441 15.464 168.365 15.803 168.214 16.157 C 168.063 16.513 167.85 16.809 167.575 17.047 C 167.303 17.286 166.987 17.406 166.626 17.406 Z M 172.101 17.406 C 171.136 17.406 170.397 17.034 169.885 16.289 L 169.728 17.232 L 169.502 17.232 L 169.502 14.108 L 169.816 14.108 C 169.816 15.109 169.978 15.85 170.304 16.331 C 170.63 16.815 171.124 17.057 171.787 17.057 C 172.334 17.057 172.741 16.867 173.008 16.488 C 173.276 16.111 173.41 15.626 173.41 15.033 C 173.41 14.556 173.245 14.178 172.914 13.899 C 172.582 13.62 172.095 13.329 171.456 13.027 C 171.014 12.817 170.665 12.631 170.409 12.468 C 170.153 12.306 169.935 12.102 169.756 11.858 C 169.575 11.614 169.484 11.317 169.484 10.968 C 169.484 10.258 169.709 9.708 170.158 9.317 C 170.604 8.929 171.171 8.735 171.857 8.735 C 172.264 8.735 172.651 8.83 173.019 9.021 C 173.384 9.214 173.596 9.415 173.654 9.625 L 173.776 8.735 L 174.003 8.735 L 174.003 11.02 L 173.741 11.02 C 173.741 10.509 173.584 10.049 173.27 9.642 C 172.956 9.235 172.543 9.031 172.031 9.031 C 171.089 9.031 170.618 9.549 170.618 10.584 C 170.618 10.945 170.752 11.236 171.019 11.457 C 171.287 11.678 171.712 11.939 172.293 12.242 C 172.782 12.498 173.177 12.727 173.48 12.929 C 173.782 13.134 174.041 13.399 174.258 13.725 C 174.472 14.05 174.579 14.446 174.579 14.911 C 174.579 15.307 174.474 15.696 174.265 16.08 C 174.055 16.464 173.762 16.78 173.385 17.029 C 173.006 17.28 172.578 17.406 172.101 17.406 Z M 177.545 17.406 C 177.324 17.406 177.124 17.33 176.945 17.179 C 176.763 17.028 176.672 16.842 176.672 16.621 C 176.672 16.412 176.763 16.228 176.945 16.07 C 177.124 15.914 177.324 15.836 177.545 15.836 C 177.766 15.836 177.967 15.914 178.148 16.07 C 178.328 16.228 178.417 16.412 178.417 16.621 C 178.417 16.842 178.328 17.028 178.148 17.179 C 177.967 17.33 177.766 17.406 177.545 17.406 Z M 177.545 10.968 C 177.324 10.968 177.124 10.892 176.945 10.741 C 176.763 10.59 176.672 10.404 176.672 10.183 C 176.672 9.974 176.763 9.79 176.945 9.632 C 177.124 9.476 177.324 9.398 177.545 9.398 C 177.766 9.398 177.967 9.476 178.148 9.632 C 178.328 9.79 178.417 9.974 178.417 10.183 C 178.417 10.404 178.328 10.59 178.148 10.741 C 177.967 10.892 177.766 10.968 177.545 10.968 Z M 186.164 17.406 C 185.733 17.406 185.456 17.24 185.333 16.907 C 185.212 16.577 185.152 16.092 185.152 15.452 L 185.152 14.614 L 185.152 9.328 L 184 9.328 L 184 9.066 L 185.152 9.066 L 185.152 7.199 C 185.396 7.199 185.579 7.118 185.7 6.955 C 185.823 6.792 185.884 6.624 185.884 6.449 L 186.251 6.449 L 186.233 9.066 L 187.664 9.066 L 187.664 9.328 L 186.233 9.328 L 186.216 15.469 C 186.216 15.935 186.259 16.268 186.345 16.471 C 186.433 16.676 186.577 16.778 186.774 16.778 C 187.007 16.778 187.199 16.673 187.35 16.464 C 187.501 16.254 187.614 16.018 187.689 15.756 C 187.765 15.495 187.804 15.289 187.804 15.138 L 187.978 15.138 C 187.978 15.464 187.903 15.803 187.751 16.157 C 187.6 16.513 187.387 16.809 187.113 17.047 C 186.841 17.286 186.524 17.406 186.164 17.406 Z M 195.843 16.185 C 195.843 16.475 195.872 16.693 195.931 16.837 C 195.989 16.984 196.122 17.057 196.332 17.057 C 196.425 17.057 196.57 17.028 196.768 16.97 L 196.768 17.232 L 193.802 17.232 L 193.802 16.97 C 194 17.028 194.145 17.057 194.238 17.057 C 194.424 17.057 194.544 16.987 194.598 16.848 C 194.649 16.708 194.674 16.487 194.674 16.185 L 194.674 11.299 C 194.674 10.509 194.512 9.918 194.186 9.527 C 193.86 9.138 193.424 8.944 192.877 8.944 C 192.366 8.944 191.956 9.144 191.649 9.544 C 191.34 9.947 191.124 10.421 191.003 10.968 C 190.88 11.515 190.819 12.038 190.819 12.538 L 190.819 16.185 C 190.819 16.487 190.845 16.708 190.899 16.848 C 190.95 16.987 191.069 17.057 191.255 17.057 C 191.348 17.057 191.493 17.028 191.691 16.97 L 191.691 17.232 L 188.673 17.232 L 188.673 16.97 C 188.87 17.028 189.016 17.057 189.109 17.057 C 189.318 17.057 189.452 16.984 189.51 16.837 C 189.568 16.693 189.597 16.475 189.597 16.185 L 189.597 4.181 C 189.423 4.239 189.237 4.268 189.039 4.268 C 188.957 4.268 188.835 4.257 188.673 4.233 L 188.673 3.762 L 188.83 3.762 C 188.83 3.844 188.874 3.914 188.962 3.972 C 189.048 4.03 189.149 4.059 189.266 4.059 C 189.429 4.059 189.574 3.995 189.702 3.867 C 189.83 3.739 189.987 3.541 190.173 3.274 L 190.539 3.274 L 190.557 10.497 L 190.801 10.497 C 191.01 9.974 191.299 9.545 191.666 9.213 C 192.032 8.882 192.488 8.717 193.034 8.717 C 193.476 8.717 193.916 8.83 194.353 9.056 C 194.788 9.284 195.145 9.609 195.425 10.033 C 195.704 10.459 195.843 10.951 195.843 11.509 L 195.843 16.185 Z M 200.118 17.406 C 199.467 17.406 198.92 17.205 198.478 16.802 C 198.036 16.402 197.815 15.83 197.815 15.086 C 197.815 14.55 197.995 14.093 198.356 13.714 C 198.716 13.337 199.112 13.079 199.542 12.94 C 199.763 12.87 200.023 12.802 200.32 12.737 C 200.616 12.674 200.816 12.631 200.92 12.608 C 201.502 12.492 201.938 12.384 202.229 12.284 C 202.52 12.186 202.694 12.05 202.752 11.875 C 202.752 11.038 202.593 10.34 202.274 9.782 C 201.953 9.223 201.421 8.944 200.676 8.944 C 200.211 8.944 199.865 9.109 199.64 9.44 C 199.412 9.772 199.298 10.218 199.298 10.776 C 199.298 10.927 199.327 11.035 199.385 11.101 C 199.443 11.163 199.577 11.195 199.786 11.195 C 199.914 11.195 200.025 11.166 200.118 11.108 C 200.211 11.049 200.257 10.98 200.257 10.898 L 200.414 10.898 L 200.414 11.369 L 198.129 11.369 C 198.129 10.951 198.251 10.534 198.495 10.12 C 198.74 9.708 199.077 9.371 199.507 9.108 C 199.938 8.848 200.414 8.717 200.938 8.717 C 201.636 8.717 202.198 8.877 202.623 9.195 C 203.047 9.516 203.349 9.9 203.531 10.347 C 203.71 10.796 203.799 11.241 203.799 11.683 L 203.799 15.469 C 203.799 16.342 203.985 16.778 204.358 16.778 C 204.474 16.778 204.582 16.699 204.682 16.541 C 204.78 16.385 204.829 16.225 204.829 16.063 L 205.003 16.063 C 205.003 16.493 204.873 16.824 204.612 17.057 C 204.349 17.29 204.049 17.406 203.712 17.406 C 203.317 17.406 203.058 17.232 202.937 16.883 C 202.814 16.534 202.752 16.045 202.752 15.417 L 202.752 14.614 C 202.752 14.777 202.674 15.086 202.519 15.539 C 202.36 15.993 202.084 16.417 201.688 16.813 C 201.293 17.208 200.769 17.406 200.118 17.406 Z M 200.519 16.917 C 200.915 16.917 201.281 16.76 201.618 16.446 C 201.956 16.132 202.223 15.76 202.421 15.33 C 202.619 14.899 202.718 14.539 202.718 14.248 L 202.718 12.259 C 202.718 12.294 202.659 12.329 202.543 12.364 C 202.427 12.399 202.281 12.434 202.107 12.468 C 201.351 12.666 200.798 12.829 200.449 12.957 C 199.903 13.155 199.501 13.43 199.246 13.784 C 198.99 14.14 198.862 14.539 198.862 14.981 C 198.862 15.493 199.005 15.943 199.291 16.331 C 199.575 16.722 199.984 16.917 200.519 16.917 Z M 207.69 17.406 C 207.26 17.406 206.983 17.24 206.859 16.907 C 206.739 16.577 206.678 16.092 206.678 15.452 L 206.678 14.614 L 206.678 9.328 L 205.527 9.328 L 205.527 9.066 L 206.678 9.066 L 206.678 7.199 C 206.922 7.199 207.105 7.118 207.226 6.955 C 207.349 6.792 207.411 6.624 207.411 6.449 L 207.777 6.449 L 207.76 9.066 L 209.19 9.066 L 209.19 9.328 L 207.76 9.328 L 207.742 15.469 C 207.742 15.935 207.785 16.268 207.871 16.471 C 207.96 16.676 208.103 16.778 208.301 16.778 C 208.533 16.778 208.725 16.673 208.876 16.464 C 209.028 16.254 209.14 16.018 209.215 15.756 C 209.292 15.495 209.33 15.289 209.33 15.138 L 209.504 15.138 C 209.504 15.464 209.429 15.803 209.278 16.157 C 209.126 16.513 208.914 16.809 208.639 17.047 C 208.367 17.286 208.051 17.406 207.69 17.406 Z M 210.635 7.269 C 210.635 6.909 210.606 6.603 210.548 6.351 C 210.49 6.103 210.402 5.804 210.286 5.455 C 210.193 5.222 210.127 5.024 210.087 4.861 C 210.045 4.699 210.024 4.518 210.024 4.321 C 210.024 3.995 210.088 3.739 210.216 3.553 C 210.344 3.367 210.542 3.274 210.81 3.274 C 211.054 3.274 211.246 3.369 211.385 3.56 C 211.525 3.753 211.595 4.007 211.595 4.321 C 211.595 4.507 211.575 4.679 211.535 4.837 C 211.493 4.993 211.432 5.199 211.35 5.455 C 211.234 5.757 211.147 6.042 211.089 6.31 C 211.031 6.577 210.996 6.897 210.984 7.269 C 210.984 7.362 210.967 7.432 210.932 7.479 C 210.897 7.525 210.856 7.548 210.81 7.548 C 210.763 7.548 210.722 7.525 210.687 7.479 C 210.653 7.432 210.635 7.362 210.635 7.269 Z M 215.084 17.406 C 214.119 17.406 213.38 17.034 212.868 16.289 L 212.711 17.232 L 212.484 17.232 L 212.484 14.108 L 212.799 14.108 C 212.799 15.109 212.961 15.85 213.287 16.331 C 213.613 16.815 214.107 17.057 214.77 17.057 C 215.317 17.057 215.724 16.867 215.991 16.488 C 216.259 16.111 216.393 15.626 216.393 15.033 C 216.393 14.556 216.227 14.178 215.897 13.899 C 215.564 13.62 215.078 13.329 214.439 13.027 C 213.997 12.817 213.648 12.631 213.392 12.468 C 213.136 12.306 212.918 12.102 212.739 11.858 C 212.558 11.614 212.467 11.317 212.467 10.968 C 212.467 10.258 212.692 9.708 213.14 9.317 C 213.587 8.929 214.154 8.735 214.84 8.735 C 215.247 8.735 215.634 8.83 216.002 9.021 C 216.367 9.214 216.579 9.415 216.637 9.625 L 216.759 8.735 L 216.986 8.735 L 216.986 11.02 L 216.724 11.02 C 216.724 10.509 216.567 10.049 216.253 9.642 C 215.939 9.235 215.526 9.031 215.014 9.031 C 214.072 9.031 213.601 9.549 213.601 10.584 C 213.601 10.945 213.735 11.236 214.002 11.457 C 214.27 11.678 214.694 11.939 215.276 12.242 C 215.765 12.498 216.16 12.727 216.462 12.929 C 216.765 13.134 217.024 13.399 217.241 13.725 C 217.455 14.05 217.562 14.446 217.562 14.911 C 217.562 15.307 217.457 15.696 217.248 16.08 C 217.038 16.464 216.745 16.78 216.368 17.029 C 215.989 17.28 215.561 17.406 215.084 17.406 Z M 222.97 16.795 C 223.191 16.865 223.395 16.9 223.581 16.9 C 223.802 16.9 223.973 16.838 224.094 16.715 C 224.217 16.594 224.279 16.417 224.279 16.185 L 224.279 5.367 C 224.279 5.135 224.217 4.958 224.094 4.837 C 223.973 4.714 223.802 4.652 223.581 4.652 C 223.395 4.652 223.191 4.687 222.97 4.757 L 222.97 4.321 L 225.605 4.321 L 225.587 16.185 C 225.587 16.417 225.648 16.594 225.769 16.715 C 225.892 16.838 226.064 16.9 226.285 16.9 C 226.471 16.9 226.675 16.865 226.896 16.795 L 226.896 17.232 L 222.97 17.232 L 222.97 16.795 Z M 226.46 11.718 C 226.576 11.73 226.745 11.736 226.966 11.736 C 228.036 11.736 228.85 11.424 229.408 10.801 C 229.967 10.179 230.246 9.392 230.246 8.438 C 230.246 7.833 230.106 7.225 229.827 6.613 C 229.548 6.004 229.141 5.499 228.606 5.099 C 228.071 4.696 227.437 4.495 226.704 4.495 C 226.436 4.495 226.233 4.501 226.093 4.513 C 225.954 4.524 225.791 4.565 225.605 4.635 L 225.605 4.321 L 227.001 4.321 C 227.791 4.321 228.55 4.472 229.276 4.774 C 230.004 5.077 230.6 5.53 231.066 6.135 C 231.531 6.74 231.764 7.473 231.764 8.333 C 231.764 8.996 231.566 9.615 231.17 10.19 C 230.775 10.767 230.24 11.224 229.565 11.561 C 228.891 11.899 228.169 12.067 227.402 12.067 C 227.03 12.067 226.716 12.038 226.46 11.98 L 226.46 11.718 Z M 235.703 17.406 C 235.273 17.406 234.872 17.292 234.499 17.064 C 234.127 16.838 233.834 16.516 233.62 16.097 C 233.404 15.679 233.295 15.184 233.295 14.614 L 233.278 9.886 L 233.016 9.904 C 232.947 9.904 232.819 9.892 232.632 9.869 L 232.632 9.398 L 232.79 9.398 C 232.79 9.479 232.834 9.549 232.922 9.607 C 233.008 9.665 233.109 9.694 233.226 9.694 C 233.389 9.694 233.534 9.63 233.662 9.502 C 233.79 9.374 233.947 9.177 234.133 8.909 L 234.447 8.909 L 234.447 9.049 L 234.43 14.824 C 234.43 15.661 234.54 16.263 234.761 16.628 C 234.982 16.995 235.348 17.179 235.86 17.179 C 236.384 17.179 236.831 17.007 237.204 16.663 C 237.576 16.321 237.853 15.888 238.034 15.365 C 238.213 14.841 238.303 14.306 238.303 13.76 L 238.303 9.886 L 238.041 9.904 C 237.971 9.904 237.843 9.892 237.657 9.869 L 237.657 9.398 L 237.814 9.398 C 237.814 9.479 237.859 9.549 237.947 9.607 C 238.033 9.665 238.134 9.694 238.25 9.694 C 238.413 9.694 238.559 9.63 238.687 9.502 C 238.815 9.374 238.972 9.177 239.158 8.909 L 239.472 8.909 L 239.472 16.185 C 239.472 16.487 239.499 16.708 239.552 16.848 C 239.603 16.987 239.722 17.057 239.908 17.057 C 240.001 17.057 240.146 17.028 240.344 16.97 L 240.344 17.232 L 238.442 17.232 L 238.442 15.504 L 238.268 15.504 C 238 16.051 237.651 16.505 237.221 16.865 C 236.791 17.226 236.285 17.406 235.703 17.406 Z M 245.718 10.2 C 245.718 10.34 245.695 10.497 245.648 10.671 C 245.602 10.846 245.572 10.951 245.561 10.985 C 245.468 11.288 245.421 11.491 245.421 11.596 C 245.421 11.829 245.59 11.945 245.927 11.945 L 245.927 12.12 C 245.45 12.12 245.111 11.997 244.908 11.753 C 244.704 11.509 244.601 11.195 244.601 10.811 C 244.601 10.625 244.619 10.445 244.654 10.27 C 244.723 9.933 244.758 9.671 244.758 9.485 C 244.758 9.287 244.721 9.15 244.647 9.073 C 244.57 8.999 244.45 8.962 244.287 8.962 C 243.95 8.962 243.688 9.319 243.502 10.033 C 243.316 10.749 243.223 11.584 243.223 12.538 L 243.223 16.185 C 243.223 16.487 243.25 16.708 243.303 16.848 C 243.354 16.987 243.473 17.057 243.659 17.057 C 243.752 17.057 243.898 17.028 244.095 16.97 L 244.095 17.232 L 241.217 17.232 L 241.217 16.97 C 241.414 17.028 241.56 17.057 241.653 17.057 C 241.862 17.057 241.996 16.984 242.054 16.837 C 242.112 16.693 242.141 16.475 242.141 16.185 L 242.141 9.974 C 241.967 10.032 241.781 10.061 241.583 10.061 C 241.501 10.061 241.379 10.049 241.217 10.026 L 241.217 9.555 L 241.374 9.555 C 241.374 9.636 241.418 9.706 241.506 9.764 C 241.592 9.822 241.693 9.851 241.81 9.851 C 241.984 9.851 242.135 9.787 242.263 9.659 C 242.391 9.532 242.542 9.34 242.717 9.084 L 242.891 9.084 L 242.909 10.497 L 243.083 10.497 C 243.223 9.892 243.418 9.447 243.67 9.16 C 243.918 8.877 244.183 8.735 244.462 8.735 C 244.869 8.735 245.181 8.886 245.397 9.188 C 245.611 9.491 245.718 9.828 245.718 10.2 Z M 250.097 17.406 C 248.992 17.406 248.166 17.036 247.62 16.296 C 247.073 15.559 246.8 14.481 246.8 13.062 C 246.8 12.317 246.916 11.616 247.149 10.958 C 247.381 10.302 247.744 9.766 248.237 9.352 C 248.733 8.941 249.341 8.735 250.062 8.735 C 251.237 8.735 252.074 9.092 252.575 9.806 C 253.075 10.523 253.325 11.381 253.325 12.381 C 253.325 12.556 253.313 12.783 253.29 13.062 L 253.273 13.219 L 248.021 13.219 C 248.067 15.824 248.794 17.127 250.202 17.127 C 250.83 17.127 251.295 16.935 251.598 16.551 C 251.9 16.167 252.051 15.731 252.051 15.243 C 252.051 15.045 252.001 14.899 251.901 14.806 C 251.803 14.713 251.679 14.667 251.528 14.667 C 251.411 14.667 251.309 14.698 251.221 14.761 C 251.135 14.826 251.092 14.905 251.092 14.998 L 250.935 14.998 L 250.935 14.527 L 253.15 14.527 C 253.185 14.969 253.077 15.411 252.826 15.853 C 252.577 16.295 252.214 16.662 251.737 16.952 C 251.26 17.243 250.714 17.394 250.097 17.406 Z M 251.65 12.957 C 251.859 12.957 251.984 12.936 252.023 12.894 C 252.065 12.855 252.092 12.753 252.104 12.591 C 252.115 12.463 252.121 12.271 252.121 12.015 C 252.121 11.131 251.958 10.398 251.632 9.816 C 251.307 9.235 250.76 8.944 249.992 8.944 C 249.248 8.944 248.736 9.311 248.457 10.043 C 248.178 10.776 248.033 11.747 248.021 12.957 L 251.65 12.957 Z M 262.467 4.827 C 262.432 5.048 262.415 5.333 262.415 5.681 C 262.415 6.368 262.496 6.903 262.659 7.287 L 262.38 7.287 C 262.252 7.042 262.159 6.723 262.101 6.327 C 262.019 5.908 261.909 5.579 261.769 5.34 C 261.63 5.102 261.345 4.902 260.914 4.739 C 260.484 4.577 259.838 4.495 258.978 4.495 C 258.14 4.495 257.582 4.704 257.303 5.123 C 257.268 5.205 257.25 5.286 257.25 5.367 L 257.25 9.816 L 259.222 9.816 C 259.559 9.816 259.794 9.807 259.927 9.789 C 260.062 9.772 260.164 9.723 260.234 9.642 C 260.304 9.561 260.339 9.421 260.339 9.223 C 260.339 8.874 260.318 8.613 260.276 8.438 C 260.236 8.264 260.118 8.176 259.92 8.176 L 259.92 7.95 L 260.6 7.95 L 260.6 11.997 L 259.92 11.997 L 259.92 11.753 C 260.118 11.753 260.236 11.657 260.276 11.463 C 260.318 11.273 260.339 10.997 260.339 10.637 C 260.339 10.45 260.257 10.322 260.094 10.253 C 259.932 10.183 259.641 10.148 259.222 10.148 L 257.25 10.148 L 257.25 16.185 C 257.25 16.417 257.311 16.594 257.432 16.715 C 257.555 16.838 257.727 16.9 257.948 16.9 C 258.134 16.9 258.338 16.865 258.559 16.795 L 258.559 17.232 L 254.633 17.232 L 254.633 16.795 C 254.854 16.865 255.058 16.9 255.244 16.9 C 255.465 16.9 255.636 16.838 255.757 16.715 C 255.88 16.594 255.942 16.417 255.942 16.185 L 255.942 5.367 C 255.942 5.135 255.88 4.958 255.757 4.837 C 255.636 4.714 255.465 4.652 255.244 4.652 C 255.058 4.652 254.854 4.687 254.633 4.757 L 254.633 4.321 L 262.52 4.321 L 262.467 4.827 Z M 266.808 10.2 C 266.808 10.34 266.785 10.497 266.738 10.671 C 266.692 10.846 266.663 10.951 266.651 10.985 C 266.558 11.288 266.511 11.491 266.511 11.596 C 266.511 11.829 266.68 11.945 267.017 11.945 L 267.017 12.12 C 266.541 12.12 266.201 11.997 265.999 11.753 C 265.794 11.509 265.691 11.195 265.691 10.811 C 265.691 10.625 265.709 10.445 265.744 10.27 C 265.814 9.933 265.848 9.671 265.848 9.485 C 265.848 9.287 265.811 9.15 265.737 9.073 C 265.66 8.999 265.54 8.962 265.377 8.962 C 265.04 8.962 264.778 9.319 264.592 10.033 C 264.406 10.749 264.313 11.584 264.313 12.538 L 264.313 16.185 C 264.313 16.487 264.34 16.708 264.393 16.848 C 264.445 16.987 264.563 17.057 264.749 17.057 C 264.842 17.057 264.988 17.028 265.185 16.97 L 265.185 17.232 L 262.307 17.232 L 262.307 16.97 C 262.504 17.028 262.65 17.057 262.743 17.057 C 262.952 17.057 263.086 16.984 263.144 16.837 C 263.202 16.693 263.231 16.475 263.231 16.185 L 263.231 9.974 C 263.057 10.032 262.871 10.061 262.673 10.061 C 262.592 10.061 262.47 10.049 262.307 10.026 L 262.307 9.555 L 262.464 9.555 C 262.464 9.636 262.508 9.706 262.596 9.764 C 262.682 9.822 262.784 9.851 262.9 9.851 C 263.074 9.851 263.226 9.787 263.354 9.659 C 263.481 9.532 263.633 9.34 263.807 9.084 L 263.982 9.084 L 263.999 10.497 L 264.174 10.497 C 264.313 9.892 264.509 9.447 264.76 9.16 C 265.009 8.877 265.273 8.735 265.552 8.735 C 265.959 8.735 266.271 8.886 266.487 9.188 C 266.701 9.491 266.808 9.828 266.808 10.2 Z M 270.193 17.406 C 269.541 17.406 268.995 17.205 268.553 16.802 C 268.111 16.402 267.89 15.83 267.89 15.086 C 267.89 14.55 268.07 14.093 268.431 13.714 C 268.791 13.337 269.187 13.079 269.617 12.94 C 269.838 12.87 270.097 12.802 270.395 12.737 C 270.691 12.674 270.891 12.631 270.995 12.608 C 271.577 12.492 272.013 12.384 272.304 12.284 C 272.595 12.186 272.769 12.05 272.827 11.875 C 272.827 11.038 272.668 10.34 272.349 9.782 C 272.028 9.223 271.496 8.944 270.751 8.944 C 270.286 8.944 269.94 9.109 269.715 9.44 C 269.487 9.772 269.373 10.218 269.373 10.776 C 269.373 10.927 269.402 11.035 269.46 11.101 C 269.518 11.163 269.652 11.195 269.861 11.195 C 269.989 11.195 270.1 11.166 270.193 11.108 C 270.286 11.049 270.332 10.98 270.332 10.898 L 270.489 10.898 L 270.489 11.369 L 268.204 11.369 C 268.204 10.951 268.326 10.534 268.57 10.12 C 268.814 9.708 269.152 9.371 269.582 9.108 C 270.013 8.848 270.489 8.717 271.013 8.717 C 271.711 8.717 272.273 8.877 272.698 9.195 C 273.122 9.516 273.424 9.9 273.605 10.347 C 273.785 10.796 273.874 11.241 273.874 11.683 L 273.874 15.469 C 273.874 16.342 274.06 16.778 274.432 16.778 C 274.549 16.778 274.657 16.699 274.757 16.541 C 274.855 16.385 274.904 16.225 274.904 16.063 L 275.078 16.063 C 275.078 16.493 274.948 16.824 274.687 17.057 C 274.424 17.29 274.124 17.406 273.787 17.406 C 273.391 17.406 273.133 17.232 273.012 16.883 C 272.889 16.534 272.827 16.045 272.827 15.417 L 272.827 14.614 C 272.827 14.777 272.749 15.086 272.594 15.539 C 272.435 15.993 272.159 16.417 271.763 16.813 C 271.368 17.208 270.844 17.406 270.193 17.406 Z M 270.594 16.917 C 270.99 16.917 271.356 16.76 271.693 16.446 C 272.031 16.132 272.298 15.76 272.496 15.33 C 272.694 14.899 272.792 14.539 272.792 14.248 L 272.792 12.259 C 272.792 12.294 272.734 12.329 272.618 12.364 C 272.502 12.399 272.356 12.434 272.182 12.468 C 271.426 12.666 270.873 12.829 270.524 12.957 C 269.978 13.155 269.576 13.43 269.32 13.784 C 269.065 14.14 268.937 14.539 268.937 14.981 C 268.937 15.493 269.08 15.943 269.366 16.331 C 269.65 16.722 270.059 16.917 270.594 16.917 Z M 287.919 16.167 C 287.919 16.458 287.948 16.676 288.006 16.82 C 288.065 16.966 288.198 17.04 288.408 17.04 C 288.501 17.04 288.646 17.011 288.844 16.952 L 288.844 17.214 L 285.878 17.214 L 285.878 16.952 C 286.076 17.011 286.221 17.04 286.314 17.04 C 286.5 17.04 286.619 16.97 286.67 16.83 C 286.723 16.691 286.75 16.47 286.75 16.167 L 286.75 11.282 C 286.75 10.491 286.576 9.9 286.227 9.509 C 285.878 9.121 285.43 8.927 284.883 8.927 C 284.523 8.927 284.194 9.055 283.896 9.311 C 283.6 9.566 283.368 9.88 283.198 10.253 C 283.03 10.625 282.947 10.968 282.947 11.282 L 282.964 16.185 C 282.964 16.475 282.993 16.693 283.051 16.837 C 283.11 16.984 283.243 17.057 283.453 17.057 C 283.546 17.057 283.691 17.028 283.889 16.97 L 283.889 17.232 L 281.028 17.232 L 281.028 16.97 C 281.225 17.028 281.371 17.057 281.464 17.057 C 281.65 17.057 281.768 16.987 281.82 16.848 C 281.873 16.708 281.9 16.487 281.9 16.185 L 281.9 11.299 C 281.9 10.509 281.737 9.918 281.411 9.527 C 281.086 9.138 280.649 8.944 280.103 8.944 C 279.568 8.944 279.146 9.148 278.836 9.555 C 278.529 9.962 278.312 10.479 278.184 11.108 L 278.184 16.185 C 278.184 16.487 278.209 16.708 278.26 16.848 C 278.314 16.987 278.434 17.057 278.62 17.057 C 278.713 17.057 278.858 17.028 279.056 16.97 L 279.056 17.232 L 276.09 17.232 L 276.09 16.97 C 276.288 17.028 276.433 17.057 276.526 17.057 C 276.724 17.057 276.854 16.981 276.917 16.83 C 276.982 16.679 277.015 16.458 277.015 16.167 L 277.015 9.921 C 276.794 10.014 276.555 10.061 276.299 10.061 C 276.23 10.061 276.113 10.049 275.95 10.026 L 275.95 9.555 L 276.107 9.555 C 276.107 9.636 276.15 9.706 276.237 9.764 C 276.325 9.822 276.427 9.851 276.544 9.851 C 276.706 9.851 276.852 9.787 276.98 9.659 C 277.108 9.532 277.265 9.334 277.451 9.066 L 277.765 9.066 L 277.765 10.497 L 278.061 10.497 C 278.527 9.311 279.26 8.717 280.26 8.717 C 280.725 8.717 281.167 8.836 281.586 9.073 C 282.005 9.313 282.324 9.648 282.545 10.078 C 282.627 10.241 282.668 10.381 282.668 10.497 L 282.842 10.497 C 282.912 10.253 283.048 9.991 283.25 9.712 C 283.455 9.433 283.711 9.194 284.018 8.996 C 284.327 8.799 284.668 8.7 285.04 8.7 C 285.482 8.7 285.927 8.813 286.373 9.038 C 286.822 9.266 287.192 9.592 287.483 10.015 C 287.774 10.441 287.919 10.933 287.919 11.491 L 287.919 16.167 Z M 293.188 17.406 C 292.083 17.406 291.257 17.036 290.711 16.296 C 290.164 15.559 289.891 14.481 289.891 13.062 C 289.891 12.317 290.007 11.616 290.24 10.958 C 290.472 10.302 290.835 9.766 291.328 9.352 C 291.824 8.941 292.432 8.735 293.153 8.735 C 294.328 8.735 295.166 9.092 295.666 9.806 C 296.166 10.523 296.416 11.381 296.416 12.381 C 296.416 12.556 296.404 12.783 296.381 13.062 L 296.364 13.219 L 291.112 13.219 C 291.159 15.824 291.885 17.127 293.293 17.127 C 293.921 17.127 294.386 16.935 294.689 16.551 C 294.991 16.167 295.142 15.731 295.142 15.243 C 295.142 15.045 295.092 14.899 294.992 14.806 C 294.895 14.713 294.77 14.667 294.619 14.667 C 294.503 14.667 294.4 14.698 294.312 14.761 C 294.226 14.826 294.183 14.905 294.183 14.998 L 294.026 14.998 L 294.026 14.527 L 296.241 14.527 C 296.276 14.969 296.168 15.411 295.917 15.853 C 295.668 16.295 295.305 16.662 294.828 16.952 C 294.351 17.243 293.805 17.394 293.188 17.406 Z M 294.741 12.957 C 294.95 12.957 295.075 12.936 295.114 12.894 C 295.156 12.855 295.183 12.753 295.195 12.591 C 295.206 12.463 295.212 12.271 295.212 12.015 C 295.212 11.131 295.049 10.398 294.724 9.816 C 294.398 9.235 293.851 8.944 293.084 8.944 C 292.339 8.944 291.827 9.311 291.548 10.043 C 291.269 10.776 291.124 11.747 291.112 12.957 L 294.741 12.957 Z" opacity="1" fill="#ffffff" class="undefined-text-1" data-fill-palette-color="quaternary" id="text-1" style=""/>
        </g>
      </g>
    </svg>
  </g>
</svg>